<svg width="250" height="37" viewBox="0 0 250 37" fill="none" xmlns="http://www.w3.org/2000/svg">
<rect width="250" height="37" fill="#E5E5E5"/>
<path d="M249 1H1V36H249V1Z" stroke="#222222" stroke-width="2"/>
<path d="M31.0859 19.9844H29.6016V24H26.8594V12.625H31.3359C32.6849 12.625 33.7396 12.9245 34.5 13.5234C35.2604 14.1224 35.6406 14.9688 35.6406 16.0625C35.6406 16.8542 35.4792 17.5104 35.1562 18.0312C34.8385 18.5521 34.3385 18.974 33.6562 19.2969L36.0312 23.8828V24H33.0938L31.0859 19.9844ZM29.6016 17.8672H31.3359C31.8568 17.8672 32.2474 17.7318 32.5078 17.4609C32.7734 17.1849 32.9062 16.8021 32.9062 16.3125C32.9062 15.8229 32.7734 15.4401 32.5078 15.1641C32.2422 14.8828 31.8516 14.7422 31.3359 14.7422H29.6016V17.8672ZM45.7456 24.1562C44.4487 24.1562 43.3993 23.7708 42.5972 23C41.7951 22.224 41.3941 21.2161 41.3941 19.9766V19.7578C41.3941 18.8932 41.5529 18.1302 41.8706 17.4688C42.1935 16.8073 42.6623 16.2969 43.2769 15.9375C43.8915 15.5729 44.6206 15.3906 45.4644 15.3906C46.6519 15.3906 47.5894 15.7604 48.2769 16.5C48.9644 17.2344 49.3081 18.2604 49.3081 19.5781V20.6016H44.0737C44.1675 21.0755 44.3732 21.4479 44.6909 21.7188C45.0086 21.9896 45.4201 22.125 45.9253 22.125C46.7586 22.125 47.4097 21.8333 47.8784 21.25L49.0816 22.6719C48.7534 23.125 48.2873 23.487 47.6831 23.7578C47.0842 24.0234 46.4383 24.1562 45.7456 24.1562ZM45.4487 17.4219C44.6779 17.4219 44.2196 17.9323 44.0737 18.9531H46.73V18.75C46.7404 18.3281 46.6336 18.0026 46.4097 17.7734C46.1857 17.5391 45.8654 17.4219 45.4487 17.4219ZM59.2803 21.625C59.2803 21.401 59.1631 21.2214 58.9287 21.0859C58.6944 20.9505 58.2491 20.8099 57.5928 20.6641C56.9366 20.5182 56.3949 20.3281 55.9678 20.0938C55.5407 19.8542 55.2152 19.5651 54.9912 19.2266C54.7673 18.888 54.6553 18.5 54.6553 18.0625C54.6553 17.2865 54.9756 16.6484 55.6162 16.1484C56.2569 15.6432 57.0954 15.3906 58.1319 15.3906C59.2465 15.3906 60.1423 15.6432 60.8194 16.1484C61.4965 16.6536 61.835 17.3177 61.835 18.1406H59.1944C59.1944 17.4635 58.8376 17.125 58.1241 17.125C57.848 17.125 57.6162 17.2031 57.4287 17.3594C57.2412 17.5104 57.1475 17.7005 57.1475 17.9297C57.1475 18.1641 57.2621 18.3542 57.4912 18.5C57.7204 18.6458 58.085 18.7656 58.585 18.8594C59.0902 18.9531 59.5329 19.0651 59.9131 19.1953C61.184 19.6328 61.8194 20.4167 61.8194 21.5469C61.8194 22.3177 61.4756 22.9453 60.7881 23.4297C60.1058 23.9141 59.2204 24.1562 58.1319 24.1562C57.4079 24.1562 56.7621 24.026 56.1944 23.7656C55.6267 23.5052 55.184 23.151 54.8662 22.7031C54.5485 22.2552 54.3897 21.7839 54.3897 21.2891H56.8506C56.861 21.6797 56.9912 21.9661 57.2412 22.1484C57.4912 22.3255 57.8116 22.4141 58.2022 22.4141C58.5616 22.4141 58.8298 22.3411 59.0069 22.1953C59.1892 22.0495 59.2803 21.8594 59.2803 21.625ZM67.2056 19.6953C67.2056 18.8516 67.3697 18.1016 67.6978 17.4453C68.0259 16.7839 68.4973 16.276 69.1119 15.9219C69.7265 15.5677 70.4478 15.3906 71.2759 15.3906C72.5416 15.3906 73.539 15.7839 74.2681 16.5703C74.9973 17.3516 75.3619 18.4167 75.3619 19.7656V19.8594C75.3619 21.1771 74.9947 22.224 74.2603 23C73.5311 23.7708 72.5416 24.1562 71.2916 24.1562C70.0884 24.1562 69.1223 23.7969 68.3931 23.0781C67.664 22.3542 67.2707 21.375 67.2134 20.1406L67.2056 19.6953ZM69.8384 19.8594C69.8384 20.6406 69.9608 21.2135 70.2056 21.5781C70.4504 21.9427 70.8124 22.125 71.2916 22.125C72.2291 22.125 72.7082 21.4036 72.7291 19.9609V19.6953C72.7291 18.1797 72.2447 17.4219 71.2759 17.4219C70.3957 17.4219 69.9192 18.0755 69.8462 19.3828L69.8384 19.8594ZM86.1153 17.9297L85.2481 17.8672C84.42 17.8672 83.8887 18.1276 83.6544 18.6484V24H81.0216V15.5469H83.4903L83.5762 16.6328C84.019 15.8047 84.6361 15.3906 85.4278 15.3906C85.7091 15.3906 85.9539 15.4219 86.1622 15.4844L86.1153 17.9297ZM95.0016 13.4453V15.5469H96.3922V17.375H95.0016V21.2422C95.0016 21.5599 95.0589 21.7812 95.1734 21.9062C95.288 22.0312 95.5146 22.0938 95.8531 22.0938C96.1135 22.0938 96.3323 22.0781 96.5094 22.0469V23.9297C96.0354 24.0807 95.5406 24.1562 95.025 24.1562C94.1188 24.1562 93.4495 23.9427 93.0172 23.5156C92.5849 23.0885 92.3688 22.4401 92.3688 21.5703V17.375H91.2906V15.5469H92.3688V13.4453H95.0016Z" fill="black"/>
<path d="M118.32 24V17.375H117.094V15.5469H118.32V14.875C118.32 13.9115 118.604 13.1641 119.172 12.6328C119.74 12.1016 120.536 11.8359 121.562 11.8359C121.938 11.8359 122.349 11.8906 122.797 12L122.805 13.9375C122.643 13.8906 122.427 13.8672 122.156 13.8672C121.359 13.8672 120.961 14.2109 120.961 14.8984V15.5469H122.609V17.375H120.961V24H118.32ZM127.683 19.6953C127.683 18.8516 127.847 18.1016 128.175 17.4453C128.503 16.7839 128.975 16.276 129.589 15.9219C130.204 15.5677 130.925 15.3906 131.753 15.3906C133.019 15.3906 134.016 15.7839 134.746 16.5703C135.475 17.3516 135.839 18.4167 135.839 19.7656V19.8594C135.839 21.1771 135.472 22.224 134.738 23C134.009 23.7708 133.019 24.1562 131.769 24.1562C130.566 24.1562 129.6 23.7969 128.871 23.0781C128.141 22.3542 127.748 21.375 127.691 20.1406L127.683 19.6953ZM130.316 19.8594C130.316 20.6406 130.438 21.2135 130.683 21.5781C130.928 21.9427 131.29 22.125 131.769 22.125C132.707 22.125 133.186 21.4036 133.207 19.9609V19.6953C133.207 18.1797 132.722 17.4219 131.753 17.4219C130.873 17.4219 130.397 18.0755 130.324 19.3828L130.316 19.8594ZM146.593 17.9297L145.726 17.8672C144.897 17.8672 144.366 18.1276 144.132 18.6484V24H141.499V15.5469H143.968L144.054 16.6328C144.496 15.8047 145.114 15.3906 145.905 15.3906C146.187 15.3906 146.431 15.4219 146.64 15.4844L146.593 17.9297ZM155.956 24.1562C154.659 24.1562 153.609 23.7708 152.807 23C152.005 22.224 151.604 21.2161 151.604 19.9766V19.7578C151.604 18.8932 151.763 18.1302 152.081 17.4688C152.404 16.8073 152.872 16.2969 153.487 15.9375C154.101 15.5729 154.831 15.3906 155.674 15.3906C156.862 15.3906 157.799 15.7604 158.487 16.5C159.174 17.2344 159.518 18.2604 159.518 19.5781V20.6016H154.284C154.377 21.0755 154.583 21.4479 154.901 21.7188C155.219 21.9896 155.63 22.125 156.135 22.125C156.969 22.125 157.62 21.8333 158.088 21.25L159.292 22.6719C158.963 23.125 158.497 23.487 157.893 23.7578C157.294 24.0234 156.648 24.1562 155.956 24.1562ZM155.659 17.4219C154.888 17.4219 154.43 17.9323 154.284 18.9531H156.94V18.75C156.95 18.3281 156.844 18.0026 156.62 17.7734C156.396 17.5391 156.075 17.4219 155.659 17.4219ZM169.49 21.625C169.49 21.401 169.373 21.2214 169.139 21.0859C168.904 20.9505 168.459 20.8099 167.803 20.6641C167.147 20.5182 166.605 20.3281 166.178 20.0938C165.751 19.8542 165.425 19.5651 165.201 19.2266C164.977 18.888 164.865 18.5 164.865 18.0625C164.865 17.2865 165.186 16.6484 165.826 16.1484C166.467 15.6432 167.305 15.3906 168.342 15.3906C169.456 15.3906 170.352 15.6432 171.029 16.1484C171.706 16.6536 172.045 17.3177 172.045 18.1406H169.404C169.404 17.4635 169.048 17.125 168.334 17.125C168.058 17.125 167.826 17.2031 167.639 17.3594C167.451 17.5104 167.357 17.7005 167.357 17.9297C167.357 18.1641 167.472 18.3542 167.701 18.5C167.93 18.6458 168.295 18.7656 168.795 18.8594C169.3 18.9531 169.743 19.0651 170.123 19.1953C171.394 19.6328 172.029 20.4167 172.029 21.5469C172.029 22.3177 171.686 22.9453 170.998 23.4297C170.316 23.9141 169.43 24.1562 168.342 24.1562C167.618 24.1562 166.972 24.026 166.404 23.7656C165.837 23.5052 165.394 23.151 165.076 22.7031C164.759 22.2552 164.6 21.7839 164.6 21.2891H167.061C167.071 21.6797 167.201 21.9661 167.451 22.1484C167.701 22.3255 168.022 22.4141 168.412 22.4141C168.772 22.4141 169.04 22.3411 169.217 22.1953C169.399 22.0495 169.49 21.8594 169.49 21.625ZM180.322 16.4531C180.884 15.7448 181.603 15.3906 182.478 15.3906C183.41 15.3906 184.114 15.6667 184.588 16.2188C185.061 16.7708 185.304 17.5859 185.314 18.6641V24H182.673V18.7266C182.673 18.2786 182.582 17.9505 182.4 17.7422C182.218 17.5286 181.908 17.4219 181.47 17.4219C180.929 17.4219 180.546 17.5938 180.322 17.9375V24H177.689V12H180.322V16.4531ZM190.927 19.6953C190.927 18.8516 191.091 18.1016 191.419 17.4453C191.747 16.7839 192.219 16.276 192.833 15.9219C193.448 15.5677 194.169 15.3906 194.997 15.3906C196.263 15.3906 197.26 15.7839 197.989 16.5703C198.719 17.3516 199.083 18.4167 199.083 19.7656V19.8594C199.083 21.1771 198.716 22.224 197.982 23C197.252 23.7708 196.263 24.1562 195.013 24.1562C193.81 24.1562 192.844 23.7969 192.114 23.0781C191.385 22.3542 190.992 21.375 190.935 20.1406L190.927 19.6953ZM193.56 19.8594C193.56 20.6406 193.682 21.2135 193.927 21.5781C194.172 21.9427 194.534 22.125 195.013 22.125C195.95 22.125 196.429 21.4036 196.45 19.9609V19.6953C196.45 18.1797 195.966 17.4219 194.997 17.4219C194.117 17.4219 193.64 18.0755 193.567 19.3828L193.56 19.8594ZM209.837 17.9297L208.969 17.8672C208.141 17.8672 207.61 18.1276 207.376 18.6484V24H204.743V15.5469H207.212L207.298 16.6328C207.74 15.8047 208.357 15.3906 209.149 15.3906C209.43 15.3906 209.675 15.4219 209.883 15.4844L209.837 17.9297ZM219.199 24.1562C217.902 24.1562 216.853 23.7708 216.051 23C215.249 22.224 214.848 21.2161 214.848 19.9766V19.7578C214.848 18.8932 215.007 18.1302 215.324 17.4688C215.647 16.8073 216.116 16.2969 216.731 15.9375C217.345 15.5729 218.074 15.3906 218.918 15.3906C220.106 15.3906 221.043 15.7604 221.731 16.5C222.418 17.2344 222.762 18.2604 222.762 19.5781V20.6016H217.527C217.621 21.0755 217.827 21.4479 218.145 21.7188C218.462 21.9896 218.874 22.125 219.379 22.125C220.212 22.125 220.863 21.8333 221.332 21.25L222.535 22.6719C222.207 23.125 221.741 23.487 221.137 23.7578C220.538 24.0234 219.892 24.1562 219.199 24.1562ZM218.902 17.4219C218.132 17.4219 217.673 17.9323 217.527 18.9531H220.184V18.75C220.194 18.3281 220.087 18.0026 219.863 17.7734C219.639 17.5391 219.319 17.4219 218.902 17.4219Z" fill="#99F2C8"/>
</svg>
